<svg xmlns="http://www.w3.org/2000/svg" width="2400" height="1600" viewBox="0 0 2400 1600">
  <defs>
    <style>
      .bg { fill: #ffffff; }
      .title { font: 700 40px Arial, sans-serif; fill: #000000; }
      .subtitle { font: 400 20px Arial, sans-serif; fill: #000000; }
      .entity { fill: #ffffff; stroke: #000000; stroke-width: 3; rx: 10; }
      .entity-main { fill: #ffffff; stroke: #000000; stroke-width: 4; rx: 10; }
      .relationship { fill: #ffffff; stroke: #000000; stroke-width: 3; }
      .attribute { fill: #ffffff; stroke: #000000; stroke-width: 2; }
      .attribute-key { fill: #ffffff; stroke: #000000; stroke-width: 2.5; }
      .entity-text { font: 700 22px Arial, sans-serif; fill: #000000; text-anchor: middle; dominant-baseline: middle; }
      .rel-text { font: 700 17px Arial, sans-serif; fill: #000000; text-anchor: middle; dominant-baseline: middle; }
      .attr-text { font: 15px Arial, sans-serif; fill: #000000; text-anchor: middle; dominant-baseline: middle; }
      .line { stroke: #000000; stroke-width: 2.2; fill: none; }
      .cardinality { font: 700 17px Arial, sans-serif; fill: #000000; text-anchor: middle; }
      .note { font: 18px Arial, sans-serif; fill: #000000; }
    </style>
  </defs>

  <rect class="bg" x="0" y="0" width="2400" height="1600"/>
  <text class="title" x="1200" y="62" text-anchor="middle">Weilight Harbor Chen ER Diagram</text>
  <text class="subtitle" x="1200" y="96" text-anchor="middle">Rectangles = entities, ovals = attributes, diamonds = relationships</text>

  <!-- Core user entity -->
  <rect class="entity-main" x="1060" y="690" width="280" height="88"/>
  <text class="entity-text" x="1200" y="734">ADMIN_USER</text>
  <line class="line" x1="1200" y1="690" x2="1200" y2="625"/>
  <ellipse class="attribute-key" cx="1200" cy="590" rx="58" ry="30"/>
  <text class="attr-text" x="1200" y="590">id PK</text>
  <line class="line" x1="1120" y1="700" x2="1010" y2="642"/>
  <ellipse class="attribute" cx="955" cy="612" rx="88" ry="30"/>
  <text class="attr-text" x="955" y="612">username</text>
  <line class="line" x1="1280" y1="700" x2="1390" y2="642"/>
  <ellipse class="attribute" cx="1445" cy="612" rx="66" ry="30"/>
  <text class="attr-text" x="1445" y="612">email</text>
  <line class="line" x1="1092" y1="778" x2="980" y2="846"/>
  <ellipse class="attribute" cx="925" cy="878" rx="78" ry="30"/>
  <text class="attr-text" x="925" y="878">user_type</text>
  <line class="line" x1="1308" y1="778" x2="1420" y2="846"/>
  <ellipse class="attribute" cx="1482" cy="878" rx="92" ry="30"/>
  <text class="attr-text" x="1482" y="878">is_certified</text>

  <!-- Admin RBAC cluster -->
  <rect class="entity" x="210" y="170" width="250" height="78"/>
  <text class="entity-text" x="335" y="209">ADMIN_ROLE</text>
  <line class="line" x1="335" y1="170" x2="335" y2="118"/>
  <ellipse class="attribute-key" cx="335" cy="90" rx="52" ry="27"/>
  <text class="attr-text" x="335" y="90">id PK</text>
  <line class="line" x1="460" y1="209" x2="545" y2="209"/>
  <ellipse class="attribute" cx="600" cy="209" rx="60" ry="27"/>
  <text class="attr-text" x="600" y="209">code</text>

  <rect class="entity" x="210" y="390" width="250" height="78"/>
  <text class="entity-text" x="335" y="429">ADMIN_POWER</text>
  <line class="line" x1="335" y1="468" x2="335" y2="520"/>
  <ellipse class="attribute-key" cx="335" cy="548" rx="52" ry="27"/>
  <text class="attr-text" x="335" y="548">id PK</text>
  <line class="line" x1="460" y1="429" x2="545" y2="429"/>
  <ellipse class="attribute" cx="600" cy="429" rx="54" ry="27"/>
  <text class="attr-text" x="600" y="429">url</text>

  <polygon class="relationship" points="610,290 710,340 610,390 510,340"/>
  <text class="rel-text" x="610" y="340">grants</text>
  <line class="line" x1="460" y1="209" x2="540" y2="305"/>
  <line class="line" x1="460" y1="429" x2="540" y2="375"/>
  <text class="cardinality" x="498" y="244">M</text>
  <text class="cardinality" x="500" y="418">N</text>

  <polygon class="relationship" points="795,410 900,465 795,520 690,465"/>
  <text class="rel-text" x="795" y="465">has role</text>
  <line class="line" x1="460" y1="248" x2="733" y2="426"/>
  <line class="line" x1="1060" y1="710" x2="860" y2="510"/>
  <text class="cardinality" x="735" y="400">N</text>
  <text class="cardinality" x="1002" y="666">M</text>

  <!-- Certification -->
  <rect class="entity" x="780" y="160" width="300" height="78"/>
  <text class="entity-text" x="930" y="199">WL_CERTIFICATION</text>
  <line class="line" x1="930" y1="160" x2="930" y2="108"/>
  <ellipse class="attribute-key" cx="930" cy="80" rx="52" ry="27"/>
  <text class="attr-text" x="930" y="80">id PK</text>
  <line class="line" x1="1080" y1="199" x2="1190" y2="150"/>
  <ellipse class="attribute" cx="1252" cy="124" rx="76" ry="27"/>
  <text class="attr-text" x="1252" y="124">status</text>
  <line class="line" x1="930" y1="238" x2="930" y2="284"/>
  <ellipse class="attribute" cx="930" cy="314" rx="84" ry="27"/>
  <text class="attr-text" x="930" y="314">cert_type</text>
  <polygon class="relationship" points="1060,420 1175,475 1060,530 945,475"/>
  <text class="rel-text" x="1060" y="475">submits</text>
  <line class="line" x1="930" y1="238" x2="1036" y2="420"/>
  <line class="line" x1="1200" y1="690" x2="1100" y2="530"/>
  <text class="cardinality" x="968" y="372">N</text>
  <text class="cardinality" x="1170" y="650">1</text>
  <polygon class="relationship" points="1412,420 1520,475 1412,530 1304,475"/>
  <text class="rel-text" x="1412" y="475">reviews</text>
  <line class="line" x1="1080" y1="214" x2="1360" y2="430"/>
  <line class="line" x1="1250" y1="690" x2="1390" y2="530"/>

  <!-- Campaign and donation -->
  <rect class="entity" x="1530" y="190" width="260" height="78"/>
  <text class="entity-text" x="1660" y="229">WL_CAMPAIGN</text>
  <line class="line" x1="1660" y1="190" x2="1660" y2="138"/>
  <ellipse class="attribute-key" cx="1660" cy="110" rx="52" ry="27"/>
  <text class="attr-text" x="1660" y="110">id PK</text>
  <line class="line" x1="1790" y1="229" x2="1870" y2="229"/>
  <ellipse class="attribute" cx="1930" cy="229" rx="58" ry="27"/>
  <text class="attr-text" x="1930" y="229">title</text>
  <line class="line" x1="1660" y1="268" x2="1660" y2="318"/>
  <ellipse class="attribute" cx="1660" cy="348" rx="76" ry="27"/>
  <text class="attr-text" x="1660" y="348">status</text>
  <polygon class="relationship" points="1510,560 1628,620 1510,680 1392,620"/>
  <text class="rel-text" x="1510" y="620">creates</text>
  <line class="line" x1="1200" y1="690" x2="1400" y2="642"/>
  <line class="line" x1="1660" y1="268" x2="1542" y2="560"/>

  <rect class="entity" x="1870" y="630" width="260" height="78"/>
  <text class="entity-text" x="2000" y="669">WL_DONATION</text>
  <line class="line" x1="2000" y1="630" x2="2000" y2="578"/>
  <ellipse class="attribute-key" cx="2000" cy="550" rx="52" ry="27"/>
  <text class="attr-text" x="2000" y="550">id PK</text>
  <line class="line" x1="2130" y1="669" x2="2210" y2="669"/>
  <ellipse class="attribute" cx="2280" cy="669" rx="76" ry="27"/>
  <text class="attr-text" x="2280" y="669">amount</text>
  <polygon class="relationship" points="1788,500 1900,555 1788,610 1676,555"/>
  <text class="rel-text" x="1788" y="555">receives</text>
  <line class="line" x1="1660" y1="268" x2="1770" y2="500"/>
  <line class="line" x1="1870" y1="648" x2="1824" y2="610"/>
  <polygon class="relationship" points="1620,780 1730,835 1620,890 1510,835"/>
  <text class="rel-text" x="1620" y="835">makes</text>
  <line class="line" x1="1340" y1="748" x2="1522" y2="812"/>
  <line class="line" x1="1870" y1="690" x2="1708" y2="812"/>

  <!-- Community -->
  <rect class="entity" x="260" y="780" width="240" height="78"/>
  <text class="entity-text" x="380" y="819">WL_POST</text>
  <line class="line" x1="380" y1="780" x2="380" y2="728"/>
  <ellipse class="attribute-key" cx="380" cy="700" rx="52" ry="27"/>
  <text class="attr-text" x="380" y="700">id PK</text>
  <line class="line" x1="260" y1="819" x2="165" y2="819"/>
  <ellipse class="attribute" cx="105" cy="819" rx="58" ry="27"/>
  <text class="attr-text" x="105" y="819">title</text>
  <line class="line" x1="380" y1="858" x2="380" y2="910"/>
  <ellipse class="attribute" cx="380" cy="940" rx="72" ry="27"/>
  <text class="attr-text" x="380" y="940">content</text>
  <polygon class="relationship" points="700,742 820,800 700,858 580,800"/>
  <text class="rel-text" x="700" y="800">publishes</text>
  <line class="line" x1="500" y1="819" x2="590" y2="807"/>
  <line class="line" x1="1060" y1="734" x2="820" y2="800"/>

  <rect class="entity" x="270" y="1060" width="250" height="78"/>
  <text class="entity-text" x="395" y="1099">WL_COMMENT</text>
  <line class="line" x1="395" y1="1138" x2="395" y2="1190"/>
  <ellipse class="attribute" cx="395" cy="1220" rx="72" ry="27"/>
  <text class="attr-text" x="395" y="1220">content</text>
  <polygon class="relationship" points="640,990 750,1045 640,1100 530,1045"/>
  <text class="rel-text" x="640" y="1045">has</text>
  <line class="line" x1="410" y1="858" x2="600" y2="990"/>
  <line class="line" x1="520" y1="1099" x2="560" y2="1078"/>
  <polygon class="relationship" points="880,1050 990,1105 880,1160 770,1105"/>
  <text class="rel-text" x="880" y="1105">writes</text>
  <line class="line" x1="1060" y1="778" x2="920" y2="1050"/>
  <line class="line" x1="520" y1="1110" x2="775" y2="1105"/>

  <rect class="entity" x="250" y="1310" width="260" height="78"/>
  <text class="entity-text" x="380" y="1349">WL_POST_LIKE</text>
  <polygon class="relationship" points="640,1250 750,1305 640,1360 530,1305"/>
  <text class="rel-text" x="640" y="1305">likes</text>
  <line class="line" x1="390" y1="858" x2="610" y2="1250"/>
  <line class="line" x1="510" y1="1349" x2="548" y2="1330"/>
  <line class="line" x1="1060" y1="768" x2="720" y2="1288"/>

  <!-- Journal and respite -->
  <rect class="entity" x="1040" y="1240" width="320" height="78"/>
  <text class="entity-text" x="1200" y="1279">WL_JOURNAL_ENTRY</text>
  <line class="line" x1="1200" y1="1318" x2="1200" y2="1370"/>
  <ellipse class="attribute" cx="1200" cy="1400" rx="80" ry="27"/>
  <text class="attr-text" x="1200" y="1400">entry_date</text>
  <line class="line" x1="1360" y1="1279" x2="1460" y2="1279"/>
  <ellipse class="attribute" cx="1525" cy="1279" rx="58" ry="27"/>
  <text class="attr-text" x="1525" y="1279">mood</text>
  <polygon class="relationship" points="1198,1000 1310,1055 1198,1110 1086,1055"/>
  <text class="rel-text" x="1198" y="1055">records</text>
  <line class="line" x1="1200" y1="778" x2="1198" y2="1000"/>
  <line class="line" x1="1200" y1="1110" x2="1200" y2="1240"/>

  <rect class="entity" x="1630" y="1225" width="340" height="78"/>
  <text class="entity-text" x="1800" y="1264">WL_RESPITE_REQUEST</text>
  <line class="line" x1="1800" y1="1303" x2="1800" y2="1355"/>
  <ellipse class="attribute" cx="1800" cy="1385" rx="78" ry="27"/>
  <text class="attr-text" x="1800" y="1385">latitude</text>
  <line class="line" x1="1970" y1="1264" x2="2072" y2="1264"/>
  <ellipse class="attribute" cx="2148" cy="1264" rx="82" ry="27"/>
  <text class="attr-text" x="2148" y="1264">longitude</text>
  <polygon class="relationship" points="1540,1032 1660,1092 1540,1152 1420,1092"/>
  <text class="rel-text" x="1540" y="1092">requests</text>
  <line class="line" x1="1308" y1="778" x2="1485" y2="1032"/>
  <line class="line" x1="1630" y1="1245" x2="1570" y2="1152"/>
  <polygon class="relationship" points="1930,960 2045,1018 1930,1076 1815,1018"/>
  <text class="rel-text" x="1930" y="1018">accepts</text>
  <line class="line" x1="1340" y1="760" x2="1826" y2="990"/>
  <line class="line" x1="1800" y1="1225" x2="1900" y2="1076"/>

  <text class="note" x="95" y="1510">Core entities shown from SQLAlchemy models. Admin logs, photos, dictionaries, confessions, and sensitive words are supporting tables and omitted for readability.</text>
  <text class="note" x="95" y="1542">Cardinality summary: one user can create many campaigns/posts/journal entries/requests; one campaign receives many donations; RBAC is many-to-many.</text>
</svg>
